<svg id="SvgjsSvg1006" width="790.5" height="731" xmlns="http://www.w3.org/2000/svg" version="1.1" xmlns:xlink="http://www.w3.org/1999/xlink" xmlns:svgjs="http://svgjs.com/svgjs"><defs id="SvgjsDefs1007"><marker id="SvgjsMarker1112" markerWidth="16" markerHeight="12" refX="16" refY="6" viewBox="0 0 16 12" orient="auto" markerUnits="userSpaceOnUse" stroke-dasharray="0,0"><path id="SvgjsPath1113" d="M0,2 L14,6 L0,11 L0,2" fill="#000000" stroke="#000000" stroke-width="2"></path></marker><marker id="SvgjsMarker1116" markerWidth="16" markerHeight="12" refX="16" refY="6" viewBox="0 0 16 12" orient="auto" markerUnits="userSpaceOnUse" stroke-dasharray="0,0"><path id="SvgjsPath1117" d="M0,2 L14,6 L0,11 L0,2" fill="#000000" stroke="#000000" stroke-width="2"></path></marker><marker id="SvgjsMarker1120" markerWidth="16" markerHeight="12" refX="16" refY="6" viewBox="0 0 16 12" orient="auto" markerUnits="userSpaceOnUse" stroke-dasharray="0,0"><path id="SvgjsPath1121" d="M0,2 L14,6 L0,11 L0,2" fill="#000000" stroke="#000000" stroke-width="2"></path></marker><marker id="SvgjsMarker1124" markerWidth="16" markerHeight="12" refX="16" refY="6" viewBox="0 0 16 12" orient="auto" markerUnits="userSpaceOnUse" stroke-dasharray="0,0"><path id="SvgjsPath1125" d="M0,2 L14,6 L0,11 L0,2" fill="#000000" stroke="#000000" stroke-width="2"></path></marker><marker id="SvgjsMarker1128" markerWidth="16" markerHeight="12" refX="16" refY="6" viewBox="0 0 16 12" orient="auto" markerUnits="userSpaceOnUse" stroke-dasharray="0,0"><path id="SvgjsPath1129" d="M0,2 L14,6 L0,11 L0,2" fill="#000000" stroke="#000000" stroke-width="2"></path></marker><marker id="SvgjsMarker1132" markerWidth="16" markerHeight="12" refX="16" refY="6" viewBox="0 0 16 12" orient="auto" markerUnits="userSpaceOnUse" stroke-dasharray="0,0"><path id="SvgjsPath1133" d="M0,2 L14,6 L0,11 L0,2" fill="#000000" stroke="#000000" stroke-width="2"></path></marker><marker id="SvgjsMarker1136" markerWidth="16" markerHeight="12" refX="16" refY="6" viewBox="0 0 16 12" orient="auto" markerUnits="userSpaceOnUse" stroke-dasharray="0,0"><path id="SvgjsPath1137" d="M0,2 L14,6 L0,11 L0,2" fill="#000000" stroke="#000000" stroke-width="2"></path></marker><marker id="SvgjsMarker1140" markerWidth="16" markerHeight="12" refX="16" refY="6" viewBox="0 0 16 12" orient="auto" markerUnits="userSpaceOnUse" stroke-dasharray="0,0"><path id="SvgjsPath1141" d="M0,2 L14,6 L0,11 L0,2" fill="#323232" stroke="#323232" stroke-width="2"></path></marker><marker id="SvgjsMarker1144" markerWidth="16" markerHeight="12" refX="16" refY="6" viewBox="0 0 16 12" orient="auto" markerUnits="userSpaceOnUse" stroke-dasharray="0,0"><path id="SvgjsPath1145" d="M0,2 L14,6 L0,11 L0,2" fill="#323232" stroke="#323232" stroke-width="2"></path></marker><marker id="SvgjsMarker1148" markerWidth="16" markerHeight="12" refX="16" refY="6" viewBox="0 0 16 12" orient="auto" markerUnits="userSpaceOnUse" stroke-dasharray="0,0"><path id="SvgjsPath1149" d="M0,2 L14,6 L0,11 L0,2" fill="#323232" stroke="#323232" stroke-width="2"></path></marker><marker id="SvgjsMarker1152" markerWidth="16" markerHeight="12" refX="16" refY="6" viewBox="0 0 16 12" orient="auto" markerUnits="userSpaceOnUse" stroke-dasharray="0,0"><path id="SvgjsPath1153" d="M0,2 L14,6 L0,11 L0,2" fill="#323232" stroke="#323232" stroke-width="2"></path></marker><marker id="SvgjsMarker1156" markerWidth="16" markerHeight="12" refX="16" refY="6" viewBox="0 0 16 12" orient="auto" markerUnits="userSpaceOnUse" stroke-dasharray="0,0"><path id="SvgjsPath1157" d="M0,2 L14,6 L0,11 L0,2" fill="#323232" stroke="#323232" stroke-width="2"></path></marker><marker id="SvgjsMarker1160" markerWidth="16" markerHeight="12" refX="16" refY="6" viewBox="0 0 16 12" orient="auto" markerUnits="userSpaceOnUse" stroke-dasharray="0,0"><path id="SvgjsPath1161" d="M0,2 L14,6 L0,11 L0,2" fill="#323232" stroke="#323232" stroke-width="2"></path></marker><marker id="SvgjsMarker1164" markerWidth="16" markerHeight="12" refX="16" refY="6" viewBox="0 0 16 12" orient="auto" markerUnits="userSpaceOnUse" stroke-dasharray="0,0"><path id="SvgjsPath1165" d="M0,2 L14,6 L0,11 L0,2" fill="#323232" stroke="#323232" stroke-width="2"></path></marker></defs><g id="SvgjsG1008" transform="translate(25,25)"><path id="SvgjsPath1009" d="M 0 0L 223 0L 223 133L 0 133Z" stroke="rgba(50,50,50,1)" stroke-width="2" fill-opacity="1" fill="#ffffff"></path><g id="SvgjsG1010"><text id="SvgjsText1011" font-family="微软雅黑" text-anchor="middle" font-size="13px" width="203px" fill="#323232" font-weight="400" align="middle" anchor="middle" family="微软雅黑" size="13px" weight="400" font-style="" opacity="1" y="56.55" transform="rotate(0)"></text></g></g><g id="SvgjsG1012" transform="translate(398.5,312)"><path id="SvgjsPath1013" d="M 0 0L 100 0L 100 70L 0 70Z" stroke="rgba(161,161,161,1)" stroke-width="2" fill-opacity="1" fill="#a1a1a1"></path><g id="SvgjsG1014"><text id="SvgjsText1015" font-family="微软雅黑" text-anchor="middle" font-size="13px" width="80px" fill="#ffffff" font-weight="400" align="middle" anchor="middle" family="微软雅黑" size="13px" weight="400" font-style="" opacity="1" y="25.05" transform="rotate(0)"><tspan id="SvgjsTspan1016" dy="16" x="50"><tspan id="SvgjsTspan1017" style="text-decoration:;">Linux</tspan></tspan></text></g></g><g id="SvgjsG1018" transform="translate(230.5,312)"><path id="SvgjsPath1019" d="M 0 0L 100 0L 100 70L 0 70Z" stroke="rgba(102,178,255,1)" stroke-width="2" fill-opacity="1" fill="#66b2ff"></path><g id="SvgjsG1020"><text id="SvgjsText1021" font-family="微软雅黑" text-anchor="middle" font-size="13px" width="80px" fill="#ffffff" font-weight="400" align="middle" anchor="middle" family="微软雅黑" size="13px" weight="400" font-style="" opacity="1" y="25.05" transform="rotate(0)"><tspan id="SvgjsTspan1022" dy="16" x="50"><tspan id="SvgjsTspan1023" style="text-decoration:;">Debian</tspan></tspan></text></g></g><g id="SvgjsG1024" transform="translate(398.5,492)"><path id="SvgjsPath1025" d="M 0 0L 100 0L 100 70L 0 70Z" stroke="rgba(255,102,102,1)" stroke-width="2" fill-opacity="1" fill="#ff6666"></path><g id="SvgjsG1026"><text id="SvgjsText1027" font-family="微软雅黑" text-anchor="middle" font-size="13px" width="80px" fill="#ffffff" font-weight="400" align="middle" anchor="middle" family="微软雅黑" size="13px" weight="400" font-style="" opacity="1" y="25.05" transform="rotate(0)"><tspan id="SvgjsTspan1028" dy="16" x="50"><tspan id="SvgjsTspan1029" style="text-decoration:;">Red Hat</tspan></tspan></text></g></g><g id="SvgjsG1030" transform="translate(665.5,395)"><path id="SvgjsPath1031" d="M 0 0L 100 0L 100 70L 0 70Z" stroke="rgba(255,179,102,1)" stroke-width="2" fill-opacity="1" fill="#ffb366"></path><g id="SvgjsG1032"><text id="SvgjsText1033" font-family="微软雅黑" text-anchor="middle" font-size="13px" width="80px" fill="#323232" font-weight="400" align="middle" anchor="middle" family="微软雅黑" size="13px" weight="400" font-style="" opacity="1" y="25.05" transform="rotate(0)"><tspan id="SvgjsTspan1034" dy="16" x="50"><tspan id="SvgjsTspan1035" style="text-decoration:;">Mandriva</tspan></tspan></text></g></g><g id="SvgjsG1036" transform="translate(665.5,312)"><path id="SvgjsPath1037" d="M 0 0L 100 0L 100 70L 0 70Z" stroke="rgba(255,179,102,1)" stroke-width="2" fill-opacity="1" fill="#ffb366"></path><g id="SvgjsG1038"><text id="SvgjsText1039" font-family="微软雅黑" text-anchor="middle" font-size="13px" width="80px" fill="#323232" font-weight="400" align="middle" anchor="middle" family="微软雅黑" size="13px" weight="400" font-style="" opacity="1" y="25.05" transform="rotate(0)"><tspan id="SvgjsTspan1040" dy="16" x="50"><tspan id="SvgjsTspan1041" style="text-decoration:;">Gentoo</tspan></tspan></text></g></g><g id="SvgjsG1042" transform="translate(665.5,229)"><path id="SvgjsPath1043" d="M 0 0L 100 0L 100 70L 0 70Z" stroke="rgba(255,179,102,1)" stroke-width="2" fill-opacity="1" fill="#ffb366"></path><g id="SvgjsG1044"><text id="SvgjsText1045" font-family="微软雅黑" text-anchor="middle" font-size="13px" width="80px" fill="#323232" font-weight="400" align="middle" anchor="middle" family="微软雅黑" size="13px" weight="400" font-style="" opacity="1" y="25.05" transform="rotate(0)"><tspan id="SvgjsTspan1046" dy="16" x="50"><tspan id="SvgjsTspan1047" style="text-decoration:;">Slackware</tspan></tspan></text></g></g><g id="SvgjsG1048" transform="translate(498.5,103)"><path id="SvgjsPath1049" d="M 0 0L 100 0L 100 70L 0 70Z" stroke="rgba(0,153,77,1)" stroke-width="2" fill-opacity="1" fill="#00994d"></path><g id="SvgjsG1050"><text id="SvgjsText1051" font-family="微软雅黑" text-anchor="middle" font-size="13px" width="80px" fill="#ffffff" font-weight="400" align="middle" anchor="middle" family="微软雅黑" size="13px" weight="400" font-style="" opacity="1" y="25.05" transform="rotate(0)"><tspan id="SvgjsTspan1052" dy="16" x="50"><tspan id="SvgjsTspan1053" style="text-decoration:;">SUSE</tspan></tspan></text></g></g><g id="SvgjsG1054" transform="translate(298.5,103)"><path id="SvgjsPath1055" d="M 0 0L 100 0L 100 70L 0 70Z" stroke="rgba(0,153,77,1)" stroke-width="2" fill-opacity="1" fill="#00994d"></path><g id="SvgjsG1056"><text id="SvgjsText1057" font-family="微软雅黑" text-anchor="middle" font-size="13px" width="80px" fill="#ffffff" font-weight="400" align="middle" anchor="middle" family="微软雅黑" size="13px" weight="400" font-style="" opacity="1" y="25.05" transform="rotate(0)"><tspan id="SvgjsTspan1058" dy="16" x="50"><tspan id="SvgjsTspan1059" style="text-decoration:;">Arch Linux</tspan></tspan></text></g></g><g id="SvgjsG1060" transform="translate(46,228.5)"><path id="SvgjsPath1061" d="M 0 0L 100 0L 100 70L 0 70Z" stroke="rgba(102,178,255,1)" stroke-width="2" fill-opacity="1" fill="#66b2ff"></path><g id="SvgjsG1062"><text id="SvgjsText1063" font-family="微软雅黑" text-anchor="middle" font-size="13px" width="80px" fill="#ffffff" font-weight="400" align="middle" anchor="middle" family="微软雅黑" size="13px" weight="400" font-style="" opacity="1" y="25.05" transform="rotate(0)"><tspan id="SvgjsTspan1064" dy="16" x="50"><tspan id="SvgjsTspan1065" style="text-decoration:;">Ubuntu</tspan></tspan></text></g></g><g id="SvgjsG1066" transform="translate(46,312)"><path id="SvgjsPath1067" d="M 0 0L 100 0L 100 70L 0 70Z" stroke="rgba(102,178,255,1)" stroke-width="2" fill-opacity="1" fill="#66b2ff"></path><g id="SvgjsG1068"><text id="SvgjsText1069" font-family="微软雅黑" text-anchor="middle" font-size="13px" width="80px" fill="#ffffff" font-weight="400" align="middle" anchor="middle" family="微软雅黑" size="13px" weight="400" font-style="" opacity="1" y="17.05" transform="rotate(0)"><tspan id="SvgjsTspan1070" dy="16" x="50"><tspan id="SvgjsTspan1071" style="text-decoration:;"> Chromium </tspan></tspan><tspan id="SvgjsTspan1072" dy="16" x="50"><tspan id="SvgjsTspan1073" style="text-decoration:;">OS</tspan></tspan></text></g></g><g id="SvgjsG1074" transform="translate(46,395.5)"><path id="SvgjsPath1075" d="M 0 0L 100 0L 100 70L 0 70Z" stroke="rgba(102,178,255,1)" stroke-width="2" fill-opacity="1" fill="#66b2ff"></path><g id="SvgjsG1076"><text id="SvgjsText1077" font-family="微软雅黑" text-anchor="middle" font-size="13px" width="80px" fill="#ffffff" font-weight="400" align="middle" anchor="middle" family="微软雅黑" size="13px" weight="400" font-style="" opacity="1" y="17.05" transform="rotate(0)"><tspan id="SvgjsTspan1078" dy="16" x="50"><tspan id="SvgjsTspan1079" style="text-decoration:;">Google </tspan></tspan><tspan id="SvgjsTspan1080" dy="16" x="50"><tspan id="SvgjsTspan1081" style="text-decoration:;">Chrome OS</tspan></tspan></text></g></g><g id="SvgjsG1082" transform="translate(230.5,636)"><path id="SvgjsPath1083" d="M 0 0L 100 0L 100 70L 0 70Z" stroke="rgba(255,102,102,1)" stroke-width="2" fill-opacity="1" fill="#ff6666"></path><g id="SvgjsG1084"><text id="SvgjsText1085" font-family="微软雅黑" text-anchor="middle" font-size="13px" width="80px" fill="#ffffff" font-weight="400" align="middle" anchor="middle" family="微软雅黑" size="13px" weight="400" font-style="" opacity="1" y="9.05" transform="rotate(0)"><tspan id="SvgjsTspan1086" dy="16" x="50"><tspan id="SvgjsTspan1087" style="text-decoration:;">Red Hat </tspan></tspan><tspan id="SvgjsTspan1088" dy="16" x="50"><tspan id="SvgjsTspan1089" style="text-decoration:;">Enterprise </tspan></tspan><tspan id="SvgjsTspan1090" dy="16" x="50"><tspan id="SvgjsTspan1091" style="text-decoration:;">Linux</tspan></tspan></text></g></g><g id="SvgjsG1092" transform="translate(342.16666666666674,636)"><path id="SvgjsPath1093" d="M 0 0L 100 0L 100 70L 0 70Z" stroke="rgba(255,102,102,1)" stroke-width="2" fill-opacity="1" fill="#ff6666"></path><g id="SvgjsG1094"><text id="SvgjsText1095" font-family="微软雅黑" text-anchor="middle" font-size="13px" width="80px" fill="#ffffff" font-weight="400" align="middle" anchor="middle" family="微软雅黑" size="13px" weight="400" font-style="" opacity="1" y="25.05" transform="rotate(0)"><tspan id="SvgjsTspan1096" dy="16" x="50"><tspan id="SvgjsTspan1097" style="text-decoration:;">Fedora</tspan></tspan></text></g></g><g id="SvgjsG1098" transform="translate(453.83333333333337,636)"><path id="SvgjsPath1099" d="M 0 0L 100 0L 100 70L 0 70Z" stroke="rgba(255,102,102,1)" stroke-width="2" fill-opacity="1" fill="#ff6666"></path><g id="SvgjsG1100"><text id="SvgjsText1101" font-family="微软雅黑" text-anchor="middle" font-size="13px" width="80px" fill="#ffffff" font-weight="400" align="middle" anchor="middle" family="微软雅黑" size="13px" weight="400" font-style="" opacity="1" y="25.05" transform="rotate(0)"><tspan id="SvgjsTspan1102" dy="16" x="50"><tspan id="SvgjsTspan1103" style="text-decoration:;">CentOS</tspan></tspan></text></g></g><g id="SvgjsG1104" transform="translate(565.5,636)"><path id="SvgjsPath1105" d="M 0 0L 100 0L 100 70L 0 70Z" stroke="rgba(255,102,102,1)" stroke-width="2" fill-opacity="1" fill="#ff6666"></path><g id="SvgjsG1106"><text id="SvgjsText1107" font-family="微软雅黑" text-anchor="middle" font-size="13px" width="80px" fill="#ffffff" font-weight="400" align="middle" anchor="middle" family="微软雅黑" size="13px" weight="400" font-style="" opacity="1" y="25.05" transform="rotate(0)"><tspan id="SvgjsTspan1108" dy="16" x="50"><tspan id="SvgjsTspan1109" style="text-decoration:;">Oracle Linux</tspan></tspan></text></g></g><g id="SvgjsG1110"><path id="SvgjsPath1111" d="M230.5 347L188.25 347L188.25 263.5L146 263.5" stroke="#000000" stroke-width="2" fill="none" marker-end="url(#SvgjsMarker1112)"></path></g><g id="SvgjsG1114"><path id="SvgjsPath1115" d="M230.5 347L188.25 347L188.25 347L146 347" stroke="#000000" stroke-width="2" fill="none" marker-end="url(#SvgjsMarker1116)"></path></g><g id="SvgjsG1118"><path id="SvgjsPath1119" d="M230.5 347L188.25 347L188.25 430.5L146 430.5" stroke="#000000" stroke-width="2" fill="none" marker-end="url(#SvgjsMarker1120)"></path></g><g id="SvgjsG1122"><path id="SvgjsPath1123" d="M448.5 562L448.5 599L280.5 599L280.5 636" stroke="#000000" stroke-width="2" fill="none" marker-end="url(#SvgjsMarker1124)"></path></g><g id="SvgjsG1126"><path id="SvgjsPath1127" d="M448.5 562L448.5 599L392.16666666666674 599L392.16666666666674 636" stroke="#000000" stroke-width="2" fill="none" marker-end="url(#SvgjsMarker1128)"></path></g><g id="SvgjsG1130"><path id="SvgjsPath1131" d="M448.5 562L448.5 599L503.8333333333335 599L503.8333333333335 636" stroke="#000000" stroke-width="2" fill="none" marker-end="url(#SvgjsMarker1132)"></path></g><g id="SvgjsG1134"><path id="SvgjsPath1135" d="M448.5 562L448.5 599L615.5 599L615.5 636" stroke="#000000" stroke-width="2" fill="none" marker-end="url(#SvgjsMarker1136)"></path></g><g id="SvgjsG1138"><path id="SvgjsPath1139" d="M398.5 347L364.5 347L364.5 347L330.5 347" stroke="#323232" stroke-width="2" fill="none" marker-end="url(#SvgjsMarker1140)"></path></g><g id="SvgjsG1142"><path id="SvgjsPath1143" d="M448.5 382L448.5 437L448.5 437L448.5 492" stroke="#323232" stroke-width="2" fill="none" marker-end="url(#SvgjsMarker1144)"></path></g><g id="SvgjsG1146"><path id="SvgjsPath1147" d="M448.5 312L448.5 242.5L348.5 242.5L348.5 173" stroke="#323232" stroke-width="2" fill="none" marker-end="url(#SvgjsMarker1148)"></path></g><g id="SvgjsG1150"><path id="SvgjsPath1151" d="M448.5 312L448.5 242.5L548.5 242.5L548.5 173" stroke="#323232" stroke-width="2" fill="none" marker-end="url(#SvgjsMarker1152)"></path></g><g id="SvgjsG1154"><path id="SvgjsPath1155" d="M498.5 347L582 347L582 264L665.5 264" stroke="#323232" stroke-width="2" fill="none" marker-end="url(#SvgjsMarker1156)"></path></g><g id="SvgjsG1158"><path id="SvgjsPath1159" d="M498.5 347L582 347L582 347L665.5 347" stroke="#323232" stroke-width="2" fill="none" marker-end="url(#SvgjsMarker1160)"></path></g><g id="SvgjsG1162"><path id="SvgjsPath1163" d="M498.5 347L582 347L582 430L665.5 430" stroke="#323232" stroke-width="2" fill="none" marker-end="url(#SvgjsMarker1164)"></path></g><g id="SvgjsG1166" transform="translate(42,38)"><path id="SvgjsPath1167" d="M 0 0L 22 0L 22 22L 0 22Z" stroke="rgba(102,178,255,1)" stroke-width="2" fill-opacity="1" fill="#66b2ff"></path><g id="SvgjsG1168"><text id="SvgjsText1169" font-family="微软雅黑" text-anchor="middle" font-size="13px" width="2px" fill="#323232" font-weight="400" align="middle" anchor="middle" family="微软雅黑" size="13px" weight="400" font-style="" opacity="1" y="1.05" transform="rotate(0)"></text></g></g><g id="SvgjsG1170" transform="translate(42,66.33333333333333)"><path id="SvgjsPath1171" d="M 0 0L 22 0L 22 22L 0 22Z" stroke="rgba(255,102,102,1)" stroke-width="2" fill-opacity="1" fill="#ff6666"></path><g id="SvgjsG1172"><text id="SvgjsText1173" font-family="微软雅黑" text-anchor="middle" font-size="13px" width="2px" fill="#323232" font-weight="400" align="middle" anchor="middle" family="微软雅黑" size="13px" weight="400" font-style="" opacity="1" y="1.05" transform="rotate(0)"></text></g></g><g id="SvgjsG1174" transform="translate(42,94.66666666666666)"><path id="SvgjsPath1175" d="M 0 0L 22 0L 22 22L 0 22Z" stroke="rgba(0,153,77,1)" stroke-width="2" fill-opacity="1" fill="#00994d"></path><g id="SvgjsG1176"><text id="SvgjsText1177" font-family="微软雅黑" text-anchor="middle" font-size="13px" width="2px" fill="#323232" font-weight="400" align="middle" anchor="middle" family="微软雅黑" size="13px" weight="400" font-style="" opacity="1" y="1.05" transform="rotate(0)"></text></g></g><g id="SvgjsG1178" transform="translate(42,123)"><path id="SvgjsPath1179" d="M 0 0L 22 0L 22 22L 0 22Z" stroke="rgba(255,179,102,1)" stroke-width="2" fill-opacity="1" fill="#ffb366"></path><g id="SvgjsG1180"><text id="SvgjsText1181" font-family="微软雅黑" text-anchor="middle" font-size="13px" width="2px" fill="#323232" font-weight="400" align="middle" anchor="middle" family="微软雅黑" size="13px" weight="400" font-style="" opacity="1" y="1.05" transform="rotate(0)"></text></g></g><g id="SvgjsG1182" transform="translate(84,35.5)"><path id="SvgjsPath1183" d="M 0 0L 117 0L 117 27L 0 27Z" stroke="none" fill="none"></path><g id="SvgjsG1184"><text id="SvgjsText1185" font-family="微软雅黑" text-anchor="start" font-size="13px" width="117px" fill="#323232" font-weight="400" align="middle" anchor="start" family="微软雅黑" size="13px" weight="400" font-style="" opacity="1" y="3.55" transform="rotate(0)"><tspan id="SvgjsTspan1186" dy="16" x="0"><tspan id="SvgjsTspan1187" style="text-decoration:;">Debian系</tspan></tspan></text></g></g><g id="SvgjsG1188" transform="translate(84,63.83333333333333)"><path id="SvgjsPath1189" d="M 0 0L 117 0L 117 27L 0 27Z" stroke="none" fill="none"></path><g id="SvgjsG1190"><text id="SvgjsText1191" font-family="微软雅黑" text-anchor="start" font-size="13px" width="117px" fill="#323232" font-weight="400" align="middle" anchor="start" family="微软雅黑" size="13px" weight="400" font-style="" opacity="1" y="3.55" transform="rotate(0)"><tspan id="SvgjsTspan1192" dy="16" x="0"><tspan id="SvgjsTspan1193" style="text-decoration:;">Red Hat系</tspan></tspan></text></g></g><g id="SvgjsG1194" transform="translate(84,92.16666666666666)"><path id="SvgjsPath1195" d="M 0 0L 117 0L 117 27L 0 27Z" stroke="none" fill="none"></path><g id="SvgjsG1196"><text id="SvgjsText1197" font-family="微软雅黑" text-anchor="start" font-size="13px" width="117px" fill="#323232" font-weight="400" align="middle" anchor="start" family="微软雅黑" size="13px" weight="400" font-style="" opacity="1" y="3.55" transform="rotate(0)"><tspan id="SvgjsTspan1198" dy="16" x="0"><tspan id="SvgjsTspan1199" style="text-decoration:;">其他系</tspan></tspan></text></g></g><g id="SvgjsG1200" transform="translate(84,120.5)"><path id="SvgjsPath1201" d="M 0 0L 144 0L 144 27L 0 27Z" stroke="none" fill="none"></path><g id="SvgjsG1202"><text id="SvgjsText1203" font-family="微软雅黑" text-anchor="start" font-size="13px" width="144px" fill="#323232" font-weight="400" align="middle" anchor="start" family="微软雅黑" size="13px" weight="400" font-style="" opacity="1" y="3.55" transform="rotate(0)"><tspan id="SvgjsTspan1204" dy="16" x="0"><tspan id="SvgjsTspan1205" style="text-decoration:;">其他系有后继分支未列出</tspan></tspan></text></g></g></svg>