<svg id="SvgjsSvg1207" width="806" height="644.5" xmlns="http://www.w3.org/2000/svg" version="1.1" xmlns:xlink="http://www.w3.org/1999/xlink" xmlns:svgjs="http://svgjs.com/svgjs"><defs id="SvgjsDefs1208"><marker id="SvgjsMarker1294" markerWidth="16" markerHeight="12" refX="16" refY="6" viewBox="0 0 16 12" orient="auto" markerUnits="userSpaceOnUse" stroke-dasharray="0,0"><path id="SvgjsPath1295" d="M0,2 L14,6 L0,11 L0,2" fill="#323232" stroke="#323232" stroke-width="2"></path></marker><marker id="SvgjsMarker1298" markerWidth="16" markerHeight="12" refX="16" refY="6" viewBox="0 0 16 12" orient="auto" markerUnits="userSpaceOnUse" stroke-dasharray="0,0"><path id="SvgjsPath1299" d="M0,2 L14,6 L0,11 L0,2" fill="#323232" stroke="#323232" stroke-width="2"></path></marker><marker id="SvgjsMarker1302" markerWidth="16" markerHeight="12" refX="16" refY="6" viewBox="0 0 16 12" orient="auto" markerUnits="userSpaceOnUse" stroke-dasharray="0,0"><path id="SvgjsPath1303" d="M0,2 L14,6 L0,11 L0,2" fill="#323232" stroke="#323232" stroke-width="2"></path></marker><marker id="SvgjsMarker1306" markerWidth="16" markerHeight="12" refX="16" refY="6" viewBox="0 0 16 12" orient="auto" markerUnits="userSpaceOnUse" stroke-dasharray="0,0"><path id="SvgjsPath1307" d="M0,2 L14,6 L0,11 L0,2" fill="#323232" stroke="#323232" stroke-width="2"></path></marker><marker id="SvgjsMarker1310" markerWidth="16" markerHeight="12" refX="16" refY="6" viewBox="0 0 16 12" orient="auto" markerUnits="userSpaceOnUse" stroke-dasharray="0,0"><path id="SvgjsPath1311" d="M0,2 L14,6 L0,11 L0,2" fill="#323232" stroke="#323232" stroke-width="2"></path></marker><marker id="SvgjsMarker1314" markerWidth="16" markerHeight="12" refX="16" refY="6" viewBox="0 0 16 12" orient="auto" markerUnits="userSpaceOnUse" stroke-dasharray="0,0"><path id="SvgjsPath1315" d="M0,2 L14,6 L0,11 L0,2" fill="#323232" stroke="#323232" stroke-width="2"></path></marker><marker id="SvgjsMarker1318" markerWidth="16" markerHeight="12" refX="16" refY="6" viewBox="0 0 16 12" orient="auto" markerUnits="userSpaceOnUse" stroke-dasharray="0,0"><path id="SvgjsPath1319" d="M0,2 L14,6 L0,11 L0,2" fill="#323232" stroke="#323232" stroke-width="2"></path></marker><marker id="SvgjsMarker1328" markerWidth="16" markerHeight="12" refX="16" refY="6" viewBox="0 0 16 12" orient="auto" markerUnits="userSpaceOnUse" stroke-dasharray="0,0"><path id="SvgjsPath1329" d="M0,2 L14,6 L0,11 L0,2" fill="#323232" stroke="#323232" stroke-width="2"></path></marker><marker id="SvgjsMarker1332" markerWidth="16" markerHeight="12" refX="16" refY="6" viewBox="0 0 16 12" orient="auto" markerUnits="userSpaceOnUse" stroke-dasharray="0,0"><path id="SvgjsPath1333" d="M0,2 L14,6 L0,11 L0,2" fill="#323232" stroke="#323232" stroke-width="2"></path></marker><marker id="SvgjsMarker1336" markerWidth="16" markerHeight="12" refX="16" refY="6" viewBox="0 0 16 12" orient="auto" markerUnits="userSpaceOnUse" stroke-dasharray="0,0"><path id="SvgjsPath1337" d="M0,2 L14,6 L0,11 L0,2" fill="#323232" stroke="#323232" stroke-width="2"></path></marker><marker id="SvgjsMarker1340" markerWidth="16" markerHeight="12" refX="16" refY="6" viewBox="0 0 16 12" orient="auto" markerUnits="userSpaceOnUse" stroke-dasharray="0,0"><path id="SvgjsPath1341" d="M0,2 L14,6 L0,11 L0,2" fill="#323232" stroke="#323232" stroke-width="2"></path></marker><marker id="SvgjsMarker1350" markerWidth="16" markerHeight="12" refX="16" refY="6" viewBox="0 0 16 12" orient="auto" markerUnits="userSpaceOnUse" stroke-dasharray="0,0"><path id="SvgjsPath1351" d="M0,2 L14,6 L0,11 L0,2" fill="#323232" stroke="#323232" stroke-width="2"></path></marker><marker id="SvgjsMarker1366" markerWidth="16" markerHeight="12" refX="16" refY="6" viewBox="0 0 16 12" orient="auto" markerUnits="userSpaceOnUse" stroke-dasharray="0,0"><path id="SvgjsPath1367" d="M0,2 L14,6 L0,11 L0,2" fill="#323232" stroke="#323232" stroke-width="2"></path></marker><marker id="SvgjsMarker1370" markerWidth="16" markerHeight="12" refX="16" refY="6" viewBox="0 0 16 12" orient="auto" markerUnits="userSpaceOnUse" stroke-dasharray="0,0"><path id="SvgjsPath1371" d="M0,2 L14,6 L0,11 L0,2" fill="#323232" stroke="#323232" stroke-width="2"></path></marker></defs><rect id="SvgjsRect1209" width="806" height="644.5" fill="#ffffff"></rect><g id="SvgjsG1210" transform="translate(25,25)"><path id="SvgjsPath1211" d="M 0 0L 221.55555555555554 0L 221.55555555555554 122L 0 122Z" stroke="rgba(50,50,50,1)" stroke-width="2" fill-opacity="1" fill="#ffffff"></path><g id="SvgjsG1212"><text id="SvgjsText1213" font-family="微软雅黑" text-anchor="middle" font-size="13px" width="202px" fill="#323232" font-weight="400" align="middle" anchor="middle" family="微软雅黑" size="13px" weight="400" font-style="" opacity="1" y="51.05" transform="rotate(0)"></text></g></g><g id="SvgjsG1214" transform="translate(467.2222222222223,150.5)"><path id="SvgjsPath1215" d="M 0 0L 100 0L 100 70L 0 70Z" stroke="rgba(255,179,102,1)" stroke-width="2" fill-opacity="1" fill="#ffb366"></path><g id="SvgjsG1216"><text id="SvgjsText1217" font-family="微软雅黑" text-anchor="middle" font-size="13px" width="80px" fill="#323232" font-weight="400" align="middle" anchor="middle" family="微软雅黑" size="13px" weight="400" font-style="" opacity="1" y="25.05" transform="rotate(0)"><tspan id="SvgjsTspan1218" dy="16" x="50"><tspan id="SvgjsTspan1219" style="text-decoration:;">Unix</tspan></tspan></text></g></g><g id="SvgjsG1220" transform="translate(146.55555555555554,286.5)"><path id="SvgjsPath1221" d="M 0 0L 100 0L 100 70L 0 70Z" stroke="rgba(255,179,102,1)" stroke-width="2" fill-opacity="1" fill="#ffb366"></path><g id="SvgjsG1222"><text id="SvgjsText1223" font-family="微软雅黑" text-anchor="middle" font-size="13px" width="80px" fill="#323232" font-weight="400" align="middle" anchor="middle" family="微软雅黑" size="13px" weight="400" font-style="" opacity="1" y="25.05" transform="rotate(0)"><tspan id="SvgjsTspan1224" dy="16" x="50"><tspan id="SvgjsTspan1225" style="text-decoration:;">BSD</tspan></tspan></text></g></g><g id="SvgjsG1226" transform="translate(39.66666666666663,414.5)"><path id="SvgjsPath1227" d="M 0 0L 100 0L 100 70L 0 70Z" stroke="rgba(0,153,0,1)" stroke-width="2" fill-opacity="1" fill="#009900"></path><g id="SvgjsG1228"><text id="SvgjsText1229" font-family="微软雅黑" text-anchor="middle" font-size="13px" width="80px" fill="#ffffff" font-weight="400" align="middle" anchor="middle" family="微软雅黑" size="13px" weight="400" font-style="" opacity="1" y="25.05" transform="rotate(0)"><tspan id="SvgjsTspan1230" dy="16" x="50"><tspan id="SvgjsTspan1231" style="text-decoration:;">FreeBSD</tspan></tspan></text></g></g><g id="SvgjsG1232" transform="translate(146.55555555555554,414.5)"><path id="SvgjsPath1233" d="M 0 0L 100 0L 100 70L 0 70Z" stroke="rgba(0,153,0,1)" stroke-width="2" fill-opacity="1" fill="#009900"></path><g id="SvgjsG1234"><text id="SvgjsText1235" font-family="微软雅黑" text-anchor="middle" font-size="13px" width="80px" fill="#ffffff" font-weight="400" align="middle" anchor="middle" family="微软雅黑" size="13px" weight="400" font-style="" opacity="1" y="25.05" transform="rotate(0)"><tspan id="SvgjsTspan1236" dy="16" x="50"><tspan id="SvgjsTspan1237" style="text-decoration:;">NetBSD</tspan></tspan></text></g></g><g id="SvgjsG1238" transform="translate(146.55555555555554,549.5)"><path id="SvgjsPath1239" d="M 0 0L 100 0L 100 70L 0 70Z" stroke="rgba(0,153,0,1)" stroke-width="2" fill-opacity="1" fill="#009900"></path><g id="SvgjsG1240"><text id="SvgjsText1241" font-family="微软雅黑" text-anchor="middle" font-size="13px" width="80px" fill="#ffffff" font-weight="400" align="middle" anchor="middle" family="微软雅黑" size="13px" weight="400" font-style="" opacity="1" y="25.05" transform="rotate(0)"><tspan id="SvgjsTspan1242" dy="16" x="50"><tspan id="SvgjsTspan1243" style="text-decoration:;">OpenBSD</tspan></tspan></text></g></g><g id="SvgjsG1244" transform="translate(39.66666666666663,549.5)"><path id="SvgjsPath1245" d="M 0 0L 100 0L 100 70L 0 70Z" stroke="rgba(255,179,102,1)" stroke-width="2" fill-opacity="1" fill="#ffb366"></path><g id="SvgjsG1246"><text id="SvgjsText1247" font-family="微软雅黑" text-anchor="middle" font-size="13px" width="80px" fill="#323232" font-weight="400" align="middle" anchor="middle" family="微软雅黑" size="13px" weight="400" font-style="" opacity="1" y="25.05" transform="rotate(0)"><tspan id="SvgjsTspan1248" dy="16" x="50"><tspan id="SvgjsTspan1249" style="text-decoration:;">MacOSX</tspan></tspan></text></g></g><g id="SvgjsG1250" transform="translate(253.44444444444446,414.5)"><path id="SvgjsPath1251" d="M 0 0L 100 0L 100 70L 0 70Z" stroke="rgba(255,153,153,1)" stroke-width="2" fill-opacity="1" fill="#ff9999"></path><g id="SvgjsG1252"><text id="SvgjsText1253" font-family="微软雅黑" text-anchor="middle" font-size="13px" width="80px" fill="#323232" font-weight="400" align="middle" anchor="middle" family="微软雅黑" size="13px" weight="400" font-style="" opacity="1" y="25.05" transform="rotate(0)"><tspan id="SvgjsTspan1254" dy="16" x="50"><tspan id="SvgjsTspan1255" style="text-decoration:;">SunOS</tspan></tspan></text></g></g><g id="SvgjsG1256" transform="translate(360.33333333333337,414.5)"><path id="SvgjsPath1257" d="M 0 0L 100 0L 100 70L 0 70Z" stroke="rgba(255,153,153,1)" stroke-width="2" fill-opacity="1" fill="#ff9999"></path><g id="SvgjsG1258"><text id="SvgjsText1259" font-family="微软雅黑" text-anchor="middle" font-size="13px" width="80px" fill="#323232" font-weight="400" align="middle" anchor="middle" family="微软雅黑" size="13px" weight="400" font-style="" opacity="1" y="25.05" transform="rotate(0)"><tspan id="SvgjsTspan1260" dy="16" x="50"><tspan id="SvgjsTspan1261" style="text-decoration:;">AIX</tspan></tspan></text></g></g><g id="SvgjsG1262" transform="translate(467.2222222222223,414.5)"><path id="SvgjsPath1263" d="M 0 0L 100 0L 100 70L 0 70Z" stroke="rgba(255,153,153,1)" stroke-width="2" fill-opacity="1" fill="#ff9999"></path><g id="SvgjsG1264"><text id="SvgjsText1265" font-family="微软雅黑" text-anchor="middle" font-size="13px" width="80px" fill="#323232" font-weight="400" align="middle" anchor="middle" family="微软雅黑" size="13px" weight="400" font-style="" opacity="1" y="25.05" transform="rotate(0)"><tspan id="SvgjsTspan1266" dy="16" x="50"><tspan id="SvgjsTspan1267" style="text-decoration:;">Solaris</tspan></tspan></text></g></g><g id="SvgjsG1268" transform="translate(574.1111111111112,414.5)"><path id="SvgjsPath1269" d="M 0 0L 100 0L 100 70L 0 70Z" stroke="rgba(255,153,153,1)" stroke-width="2" fill-opacity="1" fill="#ff9999"></path><g id="SvgjsG1270"><text id="SvgjsText1271" font-family="微软雅黑" text-anchor="middle" font-size="13px" width="80px" fill="#323232" font-weight="400" align="middle" anchor="middle" family="微软雅黑" size="13px" weight="400" font-style="" opacity="1" y="25.05" transform="rotate(0)"><tspan id="SvgjsTspan1272" dy="16" x="50"><tspan id="SvgjsTspan1273" style="text-decoration:;">HP-UX</tspan></tspan></text></g></g><g id="SvgjsG1274" transform="translate(417.8888888888889,549.5)"><path id="SvgjsPath1275" d="M 0 0L 100 0L 100 70L 0 70Z" stroke="rgba(0,153,0,1)" stroke-width="2" fill-opacity="1" fill="#009900"></path><g id="SvgjsG1276"><text id="SvgjsText1277" font-family="微软雅黑" text-anchor="middle" font-size="13px" width="80px" fill="#ffffff" font-weight="400" align="middle" anchor="middle" family="微软雅黑" size="13px" weight="400" font-style="" opacity="1" y="25.05" transform="rotate(0)"><tspan id="SvgjsTspan1278" dy="16" x="50"><tspan id="SvgjsTspan1279" style="text-decoration:;">Linux</tspan></tspan></text></g></g><g id="SvgjsG1280" transform="translate(552.7777777777778,549.5)"><path id="SvgjsPath1281" d="M 0 0L 100 0L 100 70L 0 70Z" stroke="rgba(0,153,0,1)" stroke-width="2" fill-opacity="1" fill="#009900"></path><g id="SvgjsG1282"><text id="SvgjsText1283" font-family="微软雅黑" text-anchor="middle" font-size="13px" width="80px" fill="#ffffff" font-weight="400" align="middle" anchor="middle" family="微软雅黑" size="13px" weight="400" font-style="" opacity="1" y="25.05" transform="rotate(0)"><tspan id="SvgjsTspan1284" dy="16" x="50"><tspan id="SvgjsTspan1285" style="text-decoration:;">Minix</tspan></tspan></text></g></g><g id="SvgjsG1286" transform="translate(467.2222222222223,36)"><path id="SvgjsPath1287" d="M 0 0L 100 0L 100 70L 0 70Z" stroke="rgba(255,179,102,1)" stroke-width="2" fill-opacity="1" fill="#ffb366"></path><g id="SvgjsG1288"><text id="SvgjsText1289" font-family="微软雅黑" text-anchor="middle" font-size="13px" width="80px" fill="#323232" font-weight="400" align="middle" anchor="middle" family="微软雅黑" size="13px" weight="400" font-style="" opacity="1" y="25.05" transform="rotate(0)"><tspan id="SvgjsTspan1290" dy="16" x="50"><tspan id="SvgjsTspan1291" style="text-decoration:;">Multics</tspan></tspan></text></g></g><g id="SvgjsG1292"><path id="SvgjsPath1293" d="M517.2222222222223 106L517.2222222222223 128.25L517.2222222222223 128.25L517.2222222222223 150.5" stroke="#323232" stroke-width="2" fill="none" marker-end="url(#SvgjsMarker1294)"></path></g><g id="SvgjsG1296"><path id="SvgjsPath1297" d="M517.2222222222223 220.5L517.2222222222223 253.5L196.55555555555554 253.5L196.55555555555554 286.5" stroke="#323232" stroke-width="2" fill="none" marker-end="url(#SvgjsMarker1298)"></path></g><g id="SvgjsG1300"><path id="SvgjsPath1301" d="M196.55555555555554 356.5L196.55555555555554 385.5L89.66666666666663 385.5L89.66666666666663 414.5" stroke="#323232" stroke-width="2" fill="none" marker-end="url(#SvgjsMarker1302)"></path></g><g id="SvgjsG1304"><path id="SvgjsPath1305" d="M196.55555555555554 356.5L196.55555555555554 385.5L196.55555555555554 385.5L196.55555555555554 414.5" stroke="#323232" stroke-width="2" fill="none" marker-end="url(#SvgjsMarker1306)"></path></g><g id="SvgjsG1308"><path id="SvgjsPath1309" d="M196.55555555555554 484.5L196.55555555555554 517L196.55555555555554 517L196.55555555555554 549.5" stroke="#323232" stroke-width="2" fill="none" marker-end="url(#SvgjsMarker1310)"></path></g><g id="SvgjsG1312"><path id="SvgjsPath1313" d="M89.66666666666663 484.5L89.66666666666663 517L89.66666666666663 517L89.66666666666663 549.5" stroke="#323232" stroke-width="2" fill="none" marker-end="url(#SvgjsMarker1314)"></path></g><g id="SvgjsG1316"><path id="SvgjsPath1317" d="M196.55555555555554 356.5L196.55555555555554 385.5L303.44444444444446 385.5L303.44444444444446 414.5" stroke="#323232" stroke-width="2" fill="none" marker-end="url(#SvgjsMarker1318)"></path></g><g id="SvgjsG1320" transform="translate(467.2222222222223,286.5)"><path id="SvgjsPath1321" d="M 0 0L 100 0L 100 70L 0 70Z" stroke="rgba(255,153,153,1)" stroke-width="2" fill-opacity="1" fill="#ff9999"></path><g id="SvgjsG1322"><text id="SvgjsText1323" font-family="微软雅黑" text-anchor="middle" font-size="13px" width="80px" fill="#323232" font-weight="400" align="middle" anchor="middle" family="微软雅黑" size="13px" weight="400" font-style="" opacity="1" y="25.05" transform="rotate(0)"><tspan id="SvgjsTspan1324" dy="16" x="50"><tspan id="SvgjsTspan1325" style="text-decoration:;">System V</tspan></tspan></text></g></g><g id="SvgjsG1326"><path id="SvgjsPath1327" d="M517.2222222222223 220.5L517.2222222222223 253.5L517.2222222222223 253.5L517.2222222222223 286.5" stroke="#323232" stroke-width="2" fill="none" marker-end="url(#SvgjsMarker1328)"></path></g><g id="SvgjsG1330"><path id="SvgjsPath1331" d="M517.2222222222223 356.5L517.2222222222223 385.5L410.3333333333335 385.5L410.3333333333335 414.5" stroke="#323232" stroke-width="2" fill="none" marker-end="url(#SvgjsMarker1332)"></path></g><g id="SvgjsG1334"><path id="SvgjsPath1335" d="M517.2222222222223 356.5L517.2222222222223 385.5L517.2222222222223 385.5L517.2222222222223 414.5" stroke="#323232" stroke-width="2" fill="none" marker-end="url(#SvgjsMarker1336)"></path></g><g id="SvgjsG1338"><path id="SvgjsPath1339" d="M517.2222222222223 356.5L517.2222222222223 385.5L624.1111111111112 385.5L624.1111111111112 414.5" stroke="#323232" stroke-width="2" fill="none" marker-end="url(#SvgjsMarker1340)"></path></g><g id="SvgjsG1342" transform="translate(681,301.5)"><path id="SvgjsPath1343" d="M 0 0L 100 0L 100 70L 0 70Z" stroke="rgba(255,153,153,1)" stroke-width="2" fill-opacity="1" fill="#ff9999"></path><g id="SvgjsG1344"><text id="SvgjsText1345" font-family="微软雅黑" text-anchor="middle" font-size="13px" width="80px" fill="#323232" font-weight="400" align="middle" anchor="middle" family="微软雅黑" size="13px" weight="400" font-style="" opacity="1" y="25.05" transform="rotate(0)"><tspan id="SvgjsTspan1346" dy="16" x="50"><tspan id="SvgjsTspan1347" style="text-decoration:;">Xenix</tspan></tspan></text></g></g><g id="SvgjsG1348"><path id="SvgjsPath1349" d="M517.2222222222223 220.5L517.2222222222223 254L731 254L731 301.5" stroke="#323232" stroke-width="2" fill="none" marker-end="url(#SvgjsMarker1350)"></path></g><g id="SvgjsG1352" transform="translate(681,414.5)"><path id="SvgjsPath1353" d="M 0 0L 100 0L 100 70L 0 70Z" stroke="rgba(255,153,153,1)" stroke-width="2" fill-opacity="1" fill="#ff9999"></path><g id="SvgjsG1354"><text id="SvgjsText1355" font-family="微软雅黑" text-anchor="middle" font-size="13px" width="80px" fill="#323232" font-weight="400" align="middle" anchor="middle" family="微软雅黑" size="13px" weight="400" font-style="" opacity="1" y="25.05" transform="rotate(0)"><tspan id="SvgjsTspan1356" dy="16" x="50"><tspan id="SvgjsTspan1357" style="text-decoration:;">SCO UNIX</tspan></tspan></text></g></g><g id="SvgjsG1358" transform="translate(681,549.5)"><path id="SvgjsPath1359" d="M 0 0L 100 0L 100 70L 0 70Z" stroke="rgba(255,179,102,1)" stroke-width="2" fill-opacity="1" fill="#ffb366"></path><g id="SvgjsG1360"><text id="SvgjsText1361" font-family="微软雅黑" text-anchor="middle" font-size="13px" width="80px" fill="#323232" font-weight="400" align="middle" anchor="middle" family="微软雅黑" size="13px" weight="400" font-style="" opacity="1" y="25.05" transform="rotate(0)"><tspan id="SvgjsTspan1362" dy="16" x="50"><tspan id="SvgjsTspan1363" style="text-decoration:;">OpenServer</tspan></tspan></text></g></g><g id="SvgjsG1364"><path id="SvgjsPath1365" d="M731 371.5L731 393L730.9999999999999 393L730.9999999999999 414.5" stroke="#323232" stroke-width="2" fill="none" marker-end="url(#SvgjsMarker1366)"></path></g><g id="SvgjsG1368"><path id="SvgjsPath1369" d="M730.9999999999999 484.5L730.9999999999999 517L731 517L731 549.5" stroke="#323232" stroke-width="2" fill="none" marker-end="url(#SvgjsMarker1370)"></path></g><g id="SvgjsG1372" transform="translate(283,549.5)"><path id="SvgjsPath1373" d="M 0 0L 100 0L 100 70L 0 70Z" stroke="rgba(255,153,153,1)" stroke-width="2" fill-opacity="1" fill="#ff9999"></path><g id="SvgjsG1374"><text id="SvgjsText1375" font-family="微软雅黑" text-anchor="middle" font-size="13px" width="80px" fill="#323232" font-weight="400" align="middle" anchor="middle" family="微软雅黑" size="13px" weight="400" font-style="" opacity="1" y="25.05" transform="rotate(0)"><tspan id="SvgjsTspan1376" dy="16" x="50"><tspan id="SvgjsTspan1377" style="text-decoration:;">Windows</tspan></tspan></text></g></g><g id="SvgjsG1378" transform="translate(51,41)"><path id="SvgjsPath1379" d="M 0 0L 23 0L 23 23L 0 23Z" stroke="rgba(0,153,0,1)" stroke-width="2" fill-opacity="1" fill="#009900"></path><g id="SvgjsG1380"><text id="SvgjsText1381" font-family="微软雅黑" text-anchor="middle" font-size="13px" width="3px" fill="#323232" font-weight="400" align="middle" anchor="middle" family="微软雅黑" size="13px" weight="400" font-style="" opacity="1" y="1.55" transform="rotate(0)"></text></g></g><g id="SvgjsG1382" transform="translate(51,73.5)"><path id="SvgjsPath1383" d="M 0 0L 23 0L 23 23L 0 23Z" stroke="rgba(255,179,102,1)" stroke-width="2" fill-opacity="1" fill="#ffb366"></path><g id="SvgjsG1384"><text id="SvgjsText1385" font-family="微软雅黑" text-anchor="middle" font-size="13px" width="3px" fill="#323232" font-weight="400" align="middle" anchor="middle" family="微软雅黑" size="13px" weight="400" font-style="" opacity="1" y="1.55" transform="rotate(0)"></text></g></g><g id="SvgjsG1386" transform="translate(51,106)"><path id="SvgjsPath1387" d="M 0 0L 23 0L 23 23L 0 23Z" stroke="rgba(255,153,153,1)" stroke-width="2" fill-opacity="1" fill="#ff9999"></path><g id="SvgjsG1388"><text id="SvgjsText1389" font-family="微软雅黑" text-anchor="middle" font-size="13px" width="3px" fill="#323232" font-weight="400" align="middle" anchor="middle" family="微软雅黑" size="13px" weight="400" font-style="" opacity="1" y="1.55" transform="rotate(0)"></text></g></g><g id="SvgjsG1390" transform="translate(91,32.5)"><path id="SvgjsPath1391" d="M 0 0L 120 0L 120 40L 0 40Z" stroke="none" fill="none"></path><g id="SvgjsG1392"><text id="SvgjsText1393" font-family="微软雅黑" text-anchor="start" font-size="13px" width="120px" fill="#323232" font-weight="400" align="middle" anchor="start" family="微软雅黑" size="13px" weight="400" font-style="" opacity="1" y="10.05" transform="rotate(0)"><tspan id="SvgjsTspan1394" dy="16" x="0"><tspan id="SvgjsTspan1395" style="text-decoration:;">Open source</tspan></tspan></text></g></g><g id="SvgjsG1396" transform="translate(91,66)"><path id="SvgjsPath1397" d="M 0 0L 172.44444444444446 0L 172.44444444444446 40L 0 40Z" stroke="none" fill="none"></path><g id="SvgjsG1398"><text id="SvgjsText1399" font-family="微软雅黑" text-anchor="start" font-size="13px" width="173px" fill="#323232" font-weight="400" align="middle" anchor="start" family="微软雅黑" size="13px" weight="400" font-style="" opacity="1" y="10.05" transform="rotate(0)"><tspan id="SvgjsTspan1400" dy="16" x="0"><tspan id="SvgjsTspan1401" style="text-decoration:;">Mixed/shared source</tspan></tspan></text></g></g><g id="SvgjsG1402" transform="translate(91,97.5)"><path id="SvgjsPath1403" d="M 0 0L 120 0L 120 40L 0 40Z" stroke="none" fill="none"></path><g id="SvgjsG1404"><text id="SvgjsText1405" font-family="微软雅黑" text-anchor="start" font-size="13px" width="120px" fill="#323232" font-weight="400" align="middle" anchor="start" family="微软雅黑" size="13px" weight="400" font-style="" opacity="1" y="10.05" transform="rotate(0)"><tspan id="SvgjsTspan1406" dy="16" x="0"><tspan id="SvgjsTspan1407" style="text-decoration:;">Closed source</tspan></tspan></text></g></g></svg>